<?xml version="1.0" encoding="UTF-8"?>
<svg xmlns="http://www.w3.org/2000/svg" version="1.1" width="300" height="300" viewBox="0 0 300 300"><rect x="0" y="0" width="300" height="300" fill="#ffffff"/><g transform="scale(12)"><g transform="translate(0,0)"><path fill-rule="evenodd" d="M8 0L8 1L9 1L9 6L8 6L8 8L9 8L9 10L8 10L8 9L7 9L7 8L6 8L6 9L5 9L5 8L3 8L3 9L4 9L4 10L5 10L5 11L7 11L7 12L5 12L5 13L4 13L4 12L3 12L3 10L2 10L2 8L0 8L0 9L1 9L1 10L0 10L0 11L2 11L2 13L0 13L0 17L1 17L1 15L2 15L2 13L3 13L3 14L5 14L5 15L4 15L4 16L5 16L5 15L8 15L8 16L6 16L6 17L8 17L8 18L9 18L9 17L12 17L12 16L10 16L10 15L11 15L11 14L12 14L12 15L14 15L14 16L13 16L13 18L14 18L14 17L15 17L15 18L16 18L16 20L14 20L14 19L12 19L12 18L10 18L10 19L9 19L9 20L8 20L8 22L11 22L11 24L10 24L10 23L8 23L8 25L11 25L11 24L12 24L12 25L13 25L13 23L12 23L12 21L10 21L10 20L14 20L14 21L13 21L13 22L15 22L15 21L18 21L18 22L20 22L20 23L17 23L17 22L16 22L16 23L17 23L17 24L15 24L15 25L19 25L19 24L21 24L21 25L22 25L22 24L24 24L24 25L25 25L25 21L24 21L24 19L25 19L25 18L24 18L24 16L25 16L25 14L24 14L24 13L25 13L25 10L24 10L24 9L25 9L25 8L24 8L24 9L20 9L20 10L21 10L21 12L24 12L24 13L23 13L23 14L21 14L21 13L19 13L19 12L16 12L16 10L18 10L18 11L19 11L19 10L18 10L18 9L19 9L19 8L18 8L18 9L16 9L16 8L15 8L15 6L14 6L14 7L13 7L13 5L11 5L11 3L12 3L12 4L16 4L16 3L17 3L17 2L16 2L16 3L14 3L14 2L15 2L15 1L13 1L13 0L12 0L12 1L13 1L13 3L12 3L12 2L11 2L11 0L10 0L10 1L9 1L9 0ZM16 0L16 1L17 1L17 0ZM10 2L10 3L11 3L11 2ZM9 6L9 8L11 8L11 7L12 7L12 8L13 8L13 9L12 9L12 11L13 11L13 13L12 13L12 12L10 12L10 14L8 14L8 15L10 15L10 14L11 14L11 13L12 13L12 14L13 14L13 13L14 13L14 15L15 15L15 16L16 16L16 15L15 15L15 13L16 13L16 14L18 14L18 15L17 15L17 16L20 16L20 15L21 15L21 18L22 18L22 19L21 19L21 20L22 20L22 22L21 22L21 21L20 21L20 22L21 22L21 24L22 24L22 22L23 22L23 19L24 19L24 18L23 18L23 17L22 17L22 15L21 15L21 14L19 14L19 13L16 13L16 12L15 12L15 11L14 11L14 10L15 10L15 8L13 8L13 7L12 7L12 6L11 6L11 7L10 7L10 6ZM16 6L16 7L17 7L17 6ZM6 9L6 10L7 10L7 11L8 11L8 10L7 10L7 9ZM9 10L9 11L10 11L10 10ZM22 10L22 11L24 11L24 10ZM8 12L8 13L9 13L9 12ZM14 12L14 13L15 13L15 12ZM6 13L6 14L7 14L7 13ZM23 15L23 16L24 16L24 15ZM2 16L2 17L3 17L3 16ZM8 16L8 17L9 17L9 16ZM17 17L17 20L20 20L20 17ZM18 18L18 19L19 19L19 18ZM0 0L0 7L7 7L7 0ZM1 1L1 6L6 6L6 1ZM2 2L2 5L5 5L5 2ZM18 0L18 7L25 7L25 0ZM19 1L19 6L24 6L24 1ZM20 2L20 5L23 5L23 2ZM0 18L0 25L7 25L7 18ZM1 19L1 24L6 24L6 19ZM2 20L2 23L5 23L5 20Z" fill="#000000"/></g></g></svg>
